<svg width="254" height="37" viewBox="0 0 254 37" fill="none" xmlns="http://www.w3.org/2000/svg">
<path d="M244.897 8.40002C250.057 8.40002 254.057 12.96 253.977 19C253.897 25.04 249.897 29.6 244.817 29.6C242.337 29.6 240.377 28.52 239.097 27V37H233.297V9.00003H239.097V11.12C240.337 9.52003 242.297 8.40002 244.897 8.40002ZM243.577 24C246.017 24 248.057 21.96 248.057 18.96C248.057 16 246.057 14.04 243.697 14C241.297 13.96 239.097 15.92 239.097 19C239.097 22.2 241.257 24 243.577 24Z" fill="black"/>
<path d="M231.49 17.32C231.61 18.44 231.61 19.68 231.41 21.12H217.77C218.37 23.24 219.85 24.48 222.09 24.48C224.21 24.48 225.89 23.36 226.73 21.8L231.09 24.28C229.41 27.52 225.73 29.6 221.89 29.6C216.17 29.6 212.01 25.08 212.01 19C212.01 12.92 216.13 8.40002 222.01 8.40002C227.05 8.40002 230.89 11.76 231.49 17.32ZM221.81 13.52C219.61 13.52 218.25 14.88 217.77 16.96H225.77C225.49 14.88 223.93 13.52 221.81 13.52Z" fill="black"/>
<path d="M211.243 17.32C211.363 18.44 211.363 19.68 211.163 21.12H197.523C198.123 23.24 199.603 24.48 201.843 24.48C203.963 24.48 205.643 23.36 206.483 21.8L210.843 24.28C209.163 27.52 205.483 29.6 201.643 29.6C195.923 29.6 191.763 25.08 191.763 19C191.763 12.92 195.883 8.40002 201.763 8.40002C206.803 8.40002 210.643 11.76 211.243 17.32ZM201.563 13.52C199.363 13.52 198.003 14.88 197.523 16.96H205.523C205.243 14.88 203.683 13.52 201.563 13.52Z" fill="black"/>
<path d="M187.443 29L182.123 21.08L179.723 23.48V29H173.923V1H179.723V16.24L186.643 9H194.083L186.363 16.8L194.283 29H187.443Z" fill="black"/>
<path d="M162.735 8.40002C167.575 8.40002 171.495 11.88 171.495 16.96V29H165.895V26.96C164.295 28.48 162.015 29.56 159.535 29.6C156.215 29.64 153.295 27.32 153.295 23.52C153.295 20.04 155.695 17.76 160.135 16.88L165.735 15.8C165.295 14.28 164.015 13.36 162.415 13.36C160.615 13.36 158.895 14.52 157.775 16L153.735 12.96C155.695 10.24 159.215 8.40002 162.735 8.40002ZM161.175 24.92C163.615 24.92 165.895 22.84 165.895 20.56V20.04L161.175 21C159.455 21.36 158.895 22.28 158.895 23.12C158.895 24.08 159.655 24.92 161.175 24.92Z" fill="black"/>
<path d="M144.913 8.35999C149.513 8.35999 152.473 12.44 152.473 17.36V29H146.673V18.56C146.673 15.88 145.273 13.96 143.033 13.96C140.833 13.96 139.033 15.88 139.033 18.56V29H133.273V8.99999H139.033V11.16C140.473 9.39999 142.553 8.35999 144.913 8.35999Z" fill="black"/>
<path d="M123.612 8.35999C128.212 8.35999 131.172 12.44 131.172 17.36V29H125.372V18.56C125.372 15.88 123.972 13.96 121.732 13.96C119.532 13.96 117.732 15.88 117.732 18.56V29H111.972V8.99999H117.732V11.16C119.172 9.39999 121.252 8.35999 123.612 8.35999Z" fill="black"/>
<path d="M100.783 8.40002C105.623 8.40002 109.543 11.88 109.543 16.96V29H103.943V26.96C102.343 28.48 100.063 29.56 97.5831 29.6C94.2631 29.64 91.3431 27.32 91.3431 23.52C91.3431 20.04 93.7431 17.76 98.1831 16.88L103.783 15.8C103.343 14.28 102.063 13.36 100.463 13.36C98.6631 13.36 96.9431 14.52 95.8231 16L91.7831 12.96C93.7431 10.24 97.2631 8.40002 100.783 8.40002ZM99.2231 24.92C101.663 24.92 103.943 22.84 103.943 20.56V20.04L99.2231 21C97.5031 21.36 96.9431 22.28 96.9431 23.12C96.9431 24.08 97.7031 24.92 99.2231 24.92Z" fill="black"/>
<path d="M88.08 1.79999H94.32L86.28 29H79.32L73.76 10.48L68.2 29H61.24L53.2 1.79999H59.48L64.76 20.84L70.52 1.79999H77L82.76 20.88L88.08 1.79999Z" fill="black"/>
<path d="M26.4 19.2H35.856C35.6985 19.7895 35.3835 20.325 34.944 20.748L26.7479 28.944C26.3249 29.3835 25.7894 29.6985 25.1999 29.856V20.4001C25.2014 19.7385 25.7385 19.2015 26.4 19.2ZM32.4 0H9.6C7.61399 0.00599999 6.00599 1.61399 6 3.6V26.4C6.006 28.386 7.61399 29.994 9.6 30H22.8V20.4C22.806 18.414 24.414 16.806 26.4 16.8H36V3.6C35.994 1.61399 34.386 0.00599039 32.4 0ZM24 33.6H8.4C6.81001 33.5985 5.28449 32.9655 4.15949 31.8405C3.03448 30.7155 2.4015 29.19 2.4 27.6V7.19999C2.4 6.53698 1.86301 5.99999 1.2 5.99999C0.536986 5.99999 0 6.53698 0 7.19999V27.6C0.00299981 29.8275 0.888 31.9618 2.46301 33.537C4.03803 35.112 6.17253 35.997 8.40004 36H24C24.6631 36 25.2 35.463 25.2 34.8C25.2 34.137 24.663 33.6 24 33.6Z" fill="black"/>
</svg>
